<?xml version="1.0" encoding="UTF-8" standalone="no"?>
<svg
   width="655"
   height="655"
   viewBox="0 0 655 655"
   version="1.1"
   xml:space="preserve"
   id="SVGRoot"
   inkscape:version="1.4.2 (f4327f4, 2025-05-13)"
   sodipodi:docname="icon.svg"
   inkscape:export-filename="icon192.png"
   inkscape:export-xdpi="43.885715"
   inkscape:export-ydpi="43.885715"
   xmlns:inkscape="http://www.inkscape.org/namespaces/inkscape"
   xmlns:sodipodi="http://sodipodi.sourceforge.net/DTD/sodipodi-0.dtd"
   xmlns="http://www.w3.org/2000/svg"
   xmlns:svg="http://www.w3.org/2000/svg"><defs
   id="defs48" />
<sodipodi:namedview
   pagecolor="#a9a9a9"
   bordercolor="#292929"
   borderopacity="1"
   inkscape:showpageshadow="2"
   inkscape:pageopacity="0.0"
   inkscape:pagecheckerboard="0"
   inkscape:deskcolor="#232323"
   id="namedview1"
   inkscape:zoom="0.99782675"
   inkscape:cx="420.41366"
   inkscape:cy="263.07172"
   inkscape:window-width="1920"
   inkscape:window-height="1009"
   inkscape:window-x="-8"
   inkscape:window-y="1072"
   inkscape:window-maximized="1"
   inkscape:current-layer="SVGRoot"
   inkscape:export-bgcolor="#ffffff00" />
<style
   type="text/css"
   id="style1">
g.prefab path {
  vector-effect:non-scaling-stroke;
  -inkscape-stroke:hairline;
  fill: none;
  fill-opacity: 1;
  stroke-opacity: 1;
  stroke: #00349c;
}
</style>
<g
   id="g1"
   transform="translate(117.5,117.5)"><path
     id="path51"
     style="fill:#ffff00;fill-opacity:1;stroke:none;stroke-width:5.13283;stroke-linecap:round;stroke-linejoin:round;stroke-dasharray:none;stroke-dashoffset:0;stroke-opacity:1"
     d="m 213.44614,212.141 c -0.0439,20.92454 -0.0877,41.84907 -0.13154,62.77361 18.19407,-10.4579 36.38816,-20.9158 54.58223,-31.3737 0.005,-20.92386 0.009,-41.84773 0.014,-62.7716 -18.15489,10.45723 -36.30976,20.91446 -54.46465,31.37169 z" /><path
     id="path51-4"
     style="fill:#ffff00;fill-opacity:1;stroke:none;stroke-width:5.13283;stroke-linecap:round;stroke-linejoin:round;stroke-dasharray:none;stroke-dashoffset:0;stroke-opacity:1"
     d="m 213.30463,279.66856 c -0.0439,20.92454 -0.0877,41.84908 -0.13155,62.77362 18.19475,-10.4579 36.38949,-20.91579 54.58424,-31.3737 0.0439,-20.92454 0.0877,-41.84908 0.13154,-62.77361 -18.19475,10.4579 -36.38948,20.9158 -54.58423,31.37369 z" /><path
     id="path50"
     style="fill:#960000;fill-opacity:1;stroke:none;stroke-width:5.13283;stroke-linecap:round;stroke-linejoin:round;stroke-dasharray:none;stroke-dashoffset:0;stroke-opacity:1"
     d="m 154.05844,243.61554 c 18.3914,10.44243 36.7828,20.88487 55.1742,31.32731 0.0439,-20.93261 0.0877,-41.86521 0.13154,-62.79782 -18.43524,-10.5184 -36.8705,-21.03682 -55.30574,-31.55523 0,21.00858 0,42.01716 0,63.02574 z" /><path
     id="path50-5"
     style="fill:#960000;fill-opacity:1;stroke:none;stroke-width:5.13283;stroke-linecap:round;stroke-linejoin:round;stroke-dasharray:none;stroke-dashoffset:0;stroke-opacity:1"
     d="m 153.91892,311.14513 c 18.39074,10.44176 36.78147,20.88353 55.1722,31.32529 0.0439,-20.93194 0.0877,-41.86387 0.13155,-62.79581 -18.39073,-10.44176 -36.78147,-20.88352 -55.1722,-31.32528 -0.0439,20.93193 -0.0877,41.86386 -0.13155,62.7958 z" /><path
     id="path50-1"
     style="fill:#960000;fill-opacity:1;stroke:none;stroke-width:5.13283;stroke-linecap:round;stroke-linejoin:round;stroke-dasharray:none;stroke-dashoffset:0;stroke-opacity:1"
     d="m 153.77741,378.6727 c 18.39073,10.44244 36.78147,20.88486 55.1722,31.3273 0.0439,-20.9326 0.0877,-41.86521 0.13155,-62.79781 -18.39074,-10.44176 -36.78147,-20.88353 -55.1722,-31.3253 -0.0439,20.93194 -0.0877,41.86388 -0.13155,62.79581 z" /><path
     id="path51-2"
     style="fill:#ffff00;fill-opacity:1;stroke:none;stroke-width:5.13283;stroke-linecap:round;stroke-linejoin:round;stroke-dasharray:none;stroke-dashoffset:0;stroke-opacity:1"
     d="m 213.16312,347.19614 c -0.0439,20.92521 -0.0877,41.85042 -0.13155,62.77563 18.19474,-10.45857 36.38949,-20.91715 54.58423,-31.37571 0.0439,-20.92454 0.0877,-41.84908 0.13155,-62.77362 -18.19475,10.4579 -36.38948,20.91579 -54.58423,31.3737 z" /><path
     id="path49"
     style="fill:#0000ff;fill-opacity:1;stroke:none;stroke-width:5.13283;stroke-linecap:round;stroke-linejoin:round;stroke-dasharray:none;stroke-dashoffset:0;stroke-opacity:1"
     d="m 156.18114,177.06014 c 18.40668,10.5016 36.81336,21.0032 55.22004,31.5048 18.13628,-10.44714 36.27256,-20.89429 54.40883,-31.34142 -18.27513,-10.42698 -36.55026,-20.85395 -54.8254,-31.28093 -18.26782,10.37252 -36.53565,20.74503 -54.80347,31.11755 z" /><path
     id="path49-2"
     style="fill:#0000ff;fill-opacity:1;stroke:none;stroke-width:5.13283;stroke-linecap:round;stroke-linejoin:round;stroke-dasharray:none;stroke-dashoffset:0;stroke-opacity:1"
     d="m 96.771504,143.16525 c 18.415986,10.50631 36.831966,21.01262 55.247946,31.51892 18.27448,-10.37587 36.54894,-20.75175 54.82341,-31.12762 -18.41531,-10.63204 -36.83064,-21.26407 -55.24595,-31.89609 -18.27513,10.5016 -36.55028,21.0032 -54.825406,31.50479 z" /><path
     id="path49-2-8"
     style="fill:#0000ff;fill-opacity:1;stroke:none;stroke-width:5.13283;stroke-linecap:round;stroke-linejoin:round;stroke-dasharray:none;stroke-dashoffset:0;stroke-opacity:1"
     d="m 37.3838,109.27844 c 18.413989,10.5063 36.827978,21.0126 55.241966,31.51891 C 110.90223,130.29508 129.17869,119.79281 147.45516,109.29053 129.04183,98.784234 110.62851,88.277926 92.215182,77.771618 73.938053,88.273888 55.660926,98.776158 37.3838,109.27844 Z" /><path
     id="path49-6"
     style="fill:#0000ff;fill-opacity:1;stroke:none;stroke-width:5.13283;stroke-linecap:round;stroke-linejoin:round;stroke-dasharray:none;stroke-dashoffset:0;stroke-opacity:1"
     d="m 215.12836,143.56663 c 18.27247,10.42495 36.54495,20.8499 54.81743,31.27487 18.14291,-10.45051 36.28584,-20.90102 54.42876,-31.35152 -18.14027,-10.47538 -36.28053,-20.95076 -54.42079,-31.42614 -18.27513,10.50093 -36.55027,21.00186 -54.8254,31.50279 z" /><path
     id="path49-2-1"
     style="fill:#0000ff;fill-opacity:1;stroke:none;stroke-width:5.13283;stroke-linecap:round;stroke-linejoin:round;stroke-dasharray:none;stroke-dashoffset:0;stroke-opacity:1"
     d="m 155.72271,109.28852 c 18.42196,10.63606 36.84393,21.27212 55.26589,31.90819 18.28111,-10.5043 36.56222,-21.00858 54.84334,-31.51287 C 247.40997,99.047774 228.98801,88.41172 210.56606,77.775656 192.28493,88.27994 174.00382,98.784234 155.72271,109.28852 Z" /><path
     id="path49-2-8-8"
     style="fill:#0000ff;fill-opacity:1;stroke:none;stroke-width:5.13283;stroke-linecap:round;stroke-linejoin:round;stroke-dasharray:none;stroke-dashoffset:0;stroke-opacity:1"
     d="M 96.354941,75.393636 C 114.76893,85.899933 133.18292,96.406241 151.59691,106.91255 169.8727,96.410279 188.1485,85.908009 206.4243,75.405729 188.01097,64.899431 169.59765,54.393124 151.18432,43.886816 132.90787,54.389086 114.6314,64.891356 96.354941,75.393636 Z" /><path
     id="path49-6-7"
     style="fill:#0000ff;fill-opacity:1;stroke:none;stroke-width:5.13283;stroke-linecap:round;stroke-linejoin:round;stroke-dasharray:none;stroke-dashoffset:0;stroke-opacity:1"
     d="m 274.07758,109.69191 c 18.1396,10.47471 36.27919,20.94941 54.41879,31.42412 18.14691,-10.45386 36.29382,-20.90773 54.44072,-31.3616 C 364.92971,99.22998 346.92232,88.705517 328.91493,78.181055 310.63581,88.684678 292.35669,99.18829 274.07758,109.69191 Z" /><path
     id="path49-2-1-9"
     style="fill:#0000ff;fill-opacity:1;stroke:none;stroke-width:5.13283;stroke-linecap:round;stroke-linejoin:round;stroke-dasharray:none;stroke-dashoffset:0;stroke-opacity:1"
     d="m 214.69186,75.403715 c 18.42196,10.636064 36.84392,21.272128 55.26589,31.908195 18.28111,-10.504969 36.56222,-21.009924 54.84333,-31.514889 -18.4213,-10.635392 -36.84259,-21.270785 -55.26389,-31.906167 -18.28178,10.504283 -36.56355,21.008577 -54.84533,31.512861 z" /><path
     id="path49-2-8-8-5"
     style="fill:#0000ff;fill-opacity:1;stroke:none;stroke-width:5.13283;stroke-linecap:round;stroke-linejoin:round;stroke-dasharray:none;stroke-dashoffset:0;stroke-opacity:1"
     d="m 155.32408,41.508834 c 18.414,10.506297 36.82799,21.012604 55.24198,31.518912 18.27645,-10.50227 36.55292,-21.00454 54.82938,-31.50682 C 246.98211,31.013958 228.56879,20.506979 210.15546,10 191.87834,20.502941 173.60121,31.005882 155.32408,41.508834 Z" /><path
     id="path54"
     style="fill:#960000;fill-opacity:1;stroke:none;stroke-width:5.13283;stroke-linecap:round;stroke-linejoin:round;stroke-dasharray:none;stroke-dashoffset:0;stroke-opacity:1"
     d="m 94.387702,344.78991 c 18.437908,10.51976 36.875818,21.03951 55.313728,31.55926 0.0439,-20.92992 0.0877,-41.85983 0.13155,-62.78975 -18.43791,-10.51976 -36.87582,-21.03951 -55.313727,-31.55925 -0.04388,20.92991 -0.08766,41.85982 -0.131551,62.78974 z" /><path
     id="path48"
     style="fill:#960000;fill-opacity:1;stroke:none;stroke-width:5.13283;stroke-linecap:round;stroke-linejoin:round;stroke-dasharray:none;stroke-dashoffset:0;stroke-opacity:1"
     d="m 94.529224,277.26234 c 18.437896,10.51975 36.875806,21.0395 55.313716,31.55926 0.0439,-20.92992 0.0877,-41.85983 0.13155,-62.78975 -18.43791,-10.51975 -36.87582,-21.0395 -55.313725,-31.55926 -0.04388,20.92992 -0.08766,41.85984 -0.131541,62.78975 z" /><path
     id="path1"
     style="fill:#960000;fill-opacity:1;stroke:none;stroke-width:5.13283;stroke-linecap:round;stroke-linejoin:round;stroke-dasharray:none;stroke-dashoffset:0;stroke-opacity:1"
     d="m 94.668735,209.73477 c 18.435915,10.51841 36.871825,21.03681 55.307745,31.55522 0,-21.00992 0,-42.01984 0,-63.02977 -18.43524,-10.5184 -36.8705,-21.03681 -55.305745,-31.55522 -6.63e-4,21.00993 -10e-4,42.01985 -0.002,63.02977 z" /><path
     id="path62"
     style="fill:#960000;fill-opacity:1;stroke:none;stroke-width:5.13283;stroke-linecap:round;stroke-linejoin:round;stroke-dasharray:none;stroke-dashoffset:0;stroke-opacity:1"
     d="m 35,310.9031 c 18.437907,10.51975 36.875814,21.03949 55.313724,31.55925 0.04388,-20.92991 0.08766,-41.85983 0.131541,-62.78975 C 72.007361,269.15285 53.569455,258.63309 35.131548,248.11334 35.087699,269.04326 35.043849,289.97318 35,310.9031 Z" /><path
     id="path59"
     style="fill:#960000;fill-opacity:1;stroke:none;stroke-width:5.13283;stroke-linecap:round;stroke-linejoin:round;stroke-dasharray:none;stroke-dashoffset:0;stroke-opacity:1"
     d="m 35.141513,243.37552 c 18.437907,10.51975 36.875814,21.03951 55.313723,31.55926 0.04388,-20.92992 0.08766,-41.85984 0.131541,-62.78975 -18.437903,-10.51976 -36.875809,-21.0395 -55.313716,-31.55925 -0.04385,20.92991 -0.0877,41.85982 -0.131548,62.78974 z" /><path
     id="path56"
     style="fill:#960000;fill-opacity:1;stroke:none;stroke-width:5.13283;stroke-linecap:round;stroke-linejoin:round;stroke-dasharray:none;stroke-dashoffset:0;stroke-opacity:1"
     d="m 35.281034,175.84796 c 18.435913,10.5184 36.871826,21.03681 55.307743,31.55522 0,-21.00925 0,-42.01851 0,-63.02776 -18.435252,-10.5184 -36.870501,-21.03681 -55.30575,-31.55522 -6.65e-4,21.00925 -0.0013,42.01851 -0.002,63.02776 z" /><path
     id="path68"
     style="fill:#ffff00;fill-opacity:1;stroke:none;stroke-width:5.13283;stroke-linecap:round;stroke-linejoin:round;stroke-dasharray:none;stroke-dashoffset:0;stroke-opacity:1"
     d="m 271.9768,245.94512 c -0.0439,20.92252 -0.0877,41.84505 -0.13154,62.76756 18.15222,-10.45588 36.30444,-20.91176 54.45666,-31.36765 0.0439,-20.92251 0.0877,-41.84503 0.13154,-62.76756 -18.15222,10.45588 -36.30444,20.91177 -54.45666,31.36765 z" /><path
     id="path67"
     style="fill:#ffff00;fill-opacity:1;stroke:none;stroke-width:5.13283;stroke-linecap:round;stroke-linejoin:round;stroke-dasharray:none;stroke-dashoffset:0;stroke-opacity:1"
     d="m 271.83529,313.47269 c -0.0439,20.92252 -0.0877,41.84504 -0.13156,62.76757 18.15223,-10.45589 36.30445,-20.91177 54.45667,-31.36765 0.0439,-20.92252 0.0877,-41.84505 0.13155,-62.76756 -18.15222,10.45588 -36.30444,20.91176 -54.45666,31.36764 z" /><path
     id="path64"
     style="fill:#ffff00;fill-opacity:1;stroke:none;stroke-width:5.13283;stroke-linecap:round;stroke-linejoin:round;stroke-dasharray:none;stroke-dashoffset:0;stroke-opacity:1"
     d="m 271.99275,178.41755 c -0.005,20.92387 -0.009,41.84774 -0.014,62.77159 18.15422,-10.45722 36.30843,-20.91445 54.46265,-31.37167 0.005,-20.92387 0.009,-41.84773 0.014,-62.7716 -18.15422,10.45722 -36.30843,20.91446 -54.46264,31.37168 z" /><path
     id="path74"
     style="fill:#ffff00;fill-opacity:1;stroke:none;stroke-width:5.13283;stroke-linecap:round;stroke-linejoin:round;stroke-dasharray:none;stroke-dashoffset:0;stroke-opacity:1"
     d="m 330.5214,212.22167 c -0.0439,20.92253 -0.0877,41.84505 -0.13154,62.76756 18.15222,-10.45588 36.30445,-20.91176 54.45667,-31.36764 0.0439,-20.92252 0.0877,-41.84504 0.13154,-62.76756 -18.15222,10.45588 -36.30445,20.91176 -54.45667,31.36764 z" /><path
     id="path73"
     style="fill:#ffff00;fill-opacity:1;stroke:none;stroke-width:5.13283;stroke-linecap:round;stroke-linejoin:round;stroke-dasharray:none;stroke-dashoffset:0;stroke-opacity:1"
     d="m 330.37989,279.74925 c -0.0439,20.92251 -0.0877,41.84503 -0.13155,62.76756 18.15222,-10.45588 36.30444,-20.91176 54.45667,-31.36765 0.0439,-20.92252 0.0877,-41.84505 0.13155,-62.76756 -18.15222,10.45588 -36.30445,20.91176 -54.45667,31.36765 z" /><path
     id="path70"
     style="fill:#ffff00;fill-opacity:1;stroke:none;stroke-width:5.13283;stroke-linecap:round;stroke-linejoin:round;stroke-dasharray:none;stroke-dashoffset:0;stroke-opacity:1"
     d="m 330.53735,144.69411 c -0.005,20.92386 -0.009,41.84773 -0.014,62.77159 18.15421,-10.45723 36.30843,-20.91445 54.46265,-31.37168 0.005,-20.92386 0.009,-41.84773 0.014,-62.7716 -18.15422,10.45723 -36.30843,20.91446 -54.46265,31.37169 z" /></g>
</svg>
